<svg width="64" height="46" viewBox="0 0 64 46" fill="none" xmlns="http://www.w3.org/2000/svg">
<g id="Container" clip-path="url(#clip0_81_90)">
<g id="Group">
<path id="Vector" d="M0 45.7628V36.3935H3.75992C4.43061 36.3935 5.04033 36.5967 5.58908 37.0235C6.23944 37.5316 6.58495 38.2633 6.58495 39.1982C6.58495 39.7266 6.48333 40.1941 6.25977 40.5802C7.11337 41.0883 7.51985 41.881 7.51985 42.9581C7.51985 43.893 7.19466 44.6044 6.52398 45.1328C5.99555 45.5596 5.40616 45.7628 4.69482 45.7628H0ZM1.8698 40.1331H3.75992C4.38997 40.1128 4.69482 39.8079 4.69482 39.1982C4.69482 38.5885 4.38997 38.2633 3.75992 38.2633H1.8698V40.1331ZM1.8698 43.893H4.6745C5.32487 43.8727 5.62972 43.5678 5.62972 42.9581C5.62972 42.3078 5.32487 42.0029 4.69482 42.0029H1.8698V43.893Z" fill="#45A196"/>
<path id="Vector_2" d="M15.5478 36.3935V38.2633H10.853V40.1331H14.7958V42.0029H10.853V43.893H15.5478V45.7628H8.98315V36.3935H15.5478Z" fill="#45A196"/>
<path id="Vector_3" d="M23.779 36.3935V43.893H28.108V45.7628H21.9092V36.3935H23.779Z" fill="#45A196"/>
<path id="Vector_4" d="M31.4411 36.3935V45.7628H29.5713V36.3935H31.4411Z" fill="#45A196"/>
<path id="Vector_5" d="M36.9692 45.7628L32.9247 36.3935H35.0791L36.9489 41.2103L38.8187 36.3935H40.973L36.9692 45.7628Z" fill="#45A196"/>
<path id="Vector_6" d="M44.3468 36.3935V45.7628H42.477V36.3935H44.3468Z" fill="#45A196"/>
<path id="Vector_7" d="M45.8304 45.7628V36.3935L51.2569 41.4338V36.3935H53.1471V45.7628L47.6799 40.6818V45.7628H45.8304Z" fill="#45A196"/>
<path id="Vector_8" d="M64 41.068C64 43.0191 63.2277 44.4011 61.6831 45.1937C60.8904 45.5799 60.0978 45.7628 59.3255 45.7628C57.3744 45.7628 55.9924 44.9905 55.1997 43.4256C54.8136 42.6533 54.6307 41.8606 54.6307 41.068C54.6307 40.2957 54.8136 39.5031 55.1997 38.7307C55.9924 37.1861 57.3744 36.3935 59.3255 36.3935C61.4392 36.3935 62.8415 37.2877 63.5732 39.0763L61.9676 40.0721C61.5408 38.873 60.6669 38.2836 59.3255 38.2836C58.1467 38.2836 57.3134 38.7511 56.846 39.686C56.6224 40.1331 56.5005 40.6005 56.5005 41.068C56.5005 41.5354 56.6224 42.0029 56.846 42.4907C57.3134 43.4256 58.1467 43.9133 59.3255 43.9133C60.2198 43.9133 60.9514 43.6085 61.5002 42.9784H59.3255V41.0883H64V41.068Z" fill="#45A196"/>
</g>
<g id="Group_2">
<g id="Group_3">
<path id="Vector_9" d="M25.6691 30.8044H39.5097V28.5484H28.1486V26.6786H25.6691V30.8044Z" fill="#45A196"/>
<path id="Vector_10" d="M28.1486 0.237244H25.6691V3.38745H28.1486V0.237244Z" fill="#45A196"/>
<g id="Group_4">
<path id="Vector_11" d="M44.4078 17.5329C44.1639 16.9435 43.8387 16.4151 43.4322 15.9883C43.0257 15.5615 42.538 15.1957 41.9892 14.9314C41.4405 14.6469 40.8714 14.464 40.2617 14.3421C41.5624 13.9153 42.5177 13.2649 43.0867 12.391C43.6558 11.517 43.9607 10.4805 43.9607 9.26108C43.9607 5.6231 41.4608 3.79395 36.4408 3.79395H28.7584H28.3519H25.2627H24.8562H19.45V26.2722H24.8562H25.2627H28.3519H28.7584H35.8921C37.2334 26.2722 38.4529 26.1299 39.5504 25.8251C40.6479 25.5202 41.5828 25.0934 42.3551 24.5243C43.1274 23.9553 43.7168 23.2439 44.1436 22.4106C44.5704 21.5774 44.7736 20.6221 44.7736 19.545C44.7736 18.793 44.6517 18.1223 44.4078 17.5329ZM40.8511 22.7155C39.9975 23.3659 38.6764 23.6911 36.9286 23.6911H28.7787H28.3722H25.283H24.8765H21.9092V15.9476H24.47H24.8765H25.283V13.4072H24.8765H24.47H21.9092V6.37508H24.8765H25.283H28.3722H28.7787H36.8676C37.7619 6.37508 38.4935 6.45638 39.0829 6.63929C39.6723 6.80188 40.1398 7.04577 40.4853 7.33031C40.8308 7.61484 41.0747 7.98067 41.2169 8.38715C41.3592 8.79363 41.4202 9.22043 41.4202 9.68788C41.4202 10.3382 41.2982 10.887 41.0747 11.3544C40.8511 11.8219 40.5259 12.208 40.1194 12.5129C39.713 12.8178 39.2252 13.0616 38.6561 13.2039C38.087 13.3462 37.457 13.4275 36.766 13.4275H29.1852H28.7787H28.5754V15.968H28.7787H29.1852H36.827C37.6602 15.968 38.3919 16.0493 39.0626 16.2322C39.713 16.3948 40.282 16.6387 40.7291 16.9638C41.1966 17.289 41.5421 17.6752 41.786 18.1223C42.0299 18.5898 42.1518 19.0978 42.1518 19.6669C42.1315 21.0286 41.7047 22.0448 40.8511 22.7155Z" fill="#45A196"/>
<path id="Vector_12" d="M25.6691 6.78156V13.0007V13.4072V15.9476V16.3541V17.2687V23.2846H28.1486V17.2687V16.3541V15.9476V13.4072V13.0007V6.78156H25.6691Z" fill="#45A196"/>
</g>
</g>
</g>
</g>
<defs>
<clipPath id="clip0_81_90">
<rect width="64" height="45.5256" fill="white" transform="translate(0 0.237244)"/>
</clipPath>
</defs>
</svg>
