<svg width="14" height="9" viewBox="0 0 14 9" fill="none" xmlns="http://www.w3.org/2000/svg">
<g id="Frame 31">
<path id="Vector" d="M13.6918 0.308115C13.4945 0.1108 13.2268 -4.57764e-05 12.9477 -4.57764e-05C12.6686 -4.57764e-05 12.401 0.1108 12.2036 0.308115L6.99365 5.51805L1.78371 0.308115C1.5852 0.116392 1.31934 0.0103045 1.04337 0.0127029C0.767406 0.0151005 0.503422 0.125792 0.308278 0.320937C0.113133 0.516081 0.00244331 0.780065 4.48227e-05 1.05603C-0.00235367 1.332 0.103734 1.59786 0.295458 1.79637L6.24952 7.75043C6.4469 7.94775 6.71456 8.05859 6.99365 8.05859C7.27274 8.05859 7.5404 7.94775 7.73777 7.75043L13.6918 1.79637C13.8892 1.59899 14 1.33133 14 1.05224C14 0.773153 13.8892 0.505491 13.6918 0.308115Z" fill="#011A17"/>
</g>
</svg>
