<svg width="24" height="24" viewBox="0 0 24 24" fill="none" xmlns="http://www.w3.org/2000/svg">
<g id="Edit icon">
<path id="Vector" d="M19.0567 3.29154C18.3244 2.55842 17.1537 2.51282 16.3701 3.19078C15.5657 3.88668 14.633 4.70706 14.22 5.12002C11.6225 7.71734 5.50649 13.9116 3.63089 15.812C3.27254 16.1751 3.06778 16.6598 3.05726 17.1698C3.03535 18.2315 3 20.0859 3 21C3 21.2652 3.10536 21.5196 3.29289 21.7071C3.48043 21.8947 3.73478 22 4 22C4.93034 22 6.78649 21.9695 7.85105 21.9506C8.3646 21.9414 8.85349 21.7351 9.21834 21.3735C11.1399 19.4694 17.4177 13.2459 19.87 10.78C20.2823 10.3764 21.1234 9.41283 21.8196 8.60018C22.4623 7.84996 22.4431 6.74757 21.7581 6.03579C20.9099 5.15455 19.8654 4.10113 19.0567 3.29154ZM8.26934 19.5607C7.98804 19.842 7.6065 20 7.20868 20H5.8C5.35817 20 5 19.6418 5 19.2V17.7913C5 17.3935 5.15804 17.012 5.43934 16.7307L14.2229 7.94712C14.6134 7.5566 15.2466 7.5566 15.6371 7.94712L17.0529 9.36291C17.4434 9.75343 17.4434 10.3866 17.0529 10.7771L8.26934 19.5607ZM19.7357 8.09033C19.4236 8.40463 18.9155 8.40553 18.6023 8.09233L16.9077 6.3977C16.5945 6.0845 16.5954 5.57643 16.9097 5.26434L17.1943 4.98171C17.5071 4.67118 18.0121 4.67207 18.3237 4.98371L20.0163 6.67633C20.3279 6.98797 20.3288 7.49296 20.0183 7.80569L19.7357 8.09033Z" fill="#437A9C"/>
</g>
</svg>
