<svg width="40" height="40" viewBox="0 0 40 40" fill="none" xmlns="http://www.w3.org/2000/svg">
<g id="el:ok-circle" clip-path="url(#clip0_1090_4331)">
<path id="Vector" d="M20 0C8.95433 0 0 8.95433 0 20C0 31.0457 8.95433 40 20 40C31.0456 40 40 31.0457 40 20C40 8.95433 31.0456 0 20 0ZM20 4.3457C28.6456 4.3457 35.6519 11.3565 35.6519 20C35.6519 28.6435 28.6456 35.6519 20 35.6519C11.3543 35.6519 4.34813 28.6435 4.34813 20C4.34817 11.3565 11.3543 4.3457 20 4.3457ZM29.5202 12.3596C28.4949 11.3342 26.8324 11.3343 25.8071 12.3598L16.0718 22.0972L14.1553 20.1807C13.1372 19.1626 11.4866 19.1623 10.4681 20.1801C9.44921 21.1983 9.44894 22.8498 10.4675 23.8684L12.3828 25.7837L13.2668 26.6677C14.8293 28.2302 17.3626 28.2298 18.9246 26.6668L19.7827 25.8081L29.5201 16.0728C30.5455 15.0475 30.5456 13.385 29.5202 12.3596Z" fill="#45A196"/>
</g>
<defs>
<clipPath id="clip0_1090_4331">
<rect width="40" height="40" fill="white"/>
</clipPath>
</defs>
</svg>
