<svg width="16" height="16" viewBox="0 0 16 16" fill="none" xmlns="http://www.w3.org/2000/svg">
<g id="Error icon">
<path id="Vector" d="M7.3335 10.6666C7.3335 10.2984 7.63197 9.99992 8.00016 9.99992C8.36835 9.99992 8.66683 10.2984 8.66683 10.6666C8.66683 11.0348 8.36835 11.3333 8.00016 11.3333C7.63197 11.3333 7.3335 11.0348 7.3335 10.6666ZM7.3335 5.33325C7.3335 4.96506 7.63197 4.66658 8.00016 4.66658C8.36835 4.66658 8.66683 4.96506 8.66683 5.33325V7.99992C8.66683 8.36811 8.36835 8.66658 8.00016 8.66658C7.63197 8.66658 7.3335 8.36811 7.3335 7.99992V5.33325ZM8.00016 1.33325C4.3135 1.33325 1.3335 4.33325 1.3335 7.99992C1.3335 9.76803 2.03587 11.4637 3.28612 12.714C3.90517 13.333 4.6401 13.8241 5.44894 14.1591C6.25778 14.4941 7.12468 14.6666 8.00016 14.6666C9.76827 14.6666 11.464 13.9642 12.7142 12.714C13.9644 11.4637 14.6668 9.76803 14.6668 7.99992C14.6668 7.12444 14.4944 6.25753 14.1594 5.4487C13.8243 4.63986 13.3333 3.90493 12.7142 3.28587C12.0951 2.66682 11.3602 2.17575 10.5514 1.84072C9.74255 1.50569 8.87564 1.33325 8.00016 1.33325ZM8.00016 13.3333C6.58567 13.3333 5.22912 12.7713 4.22893 11.7712C3.22873 10.771 2.66683 9.41441 2.66683 7.99992C2.66683 6.58543 3.22873 5.22888 4.22893 4.22868C5.22912 3.22849 6.58567 2.66659 8.00016 2.66659C9.41465 2.66659 10.7712 3.22849 11.7714 4.22868C12.7716 5.22888 13.3335 6.58543 13.3335 7.99992C13.3335 9.41441 12.7716 10.771 11.7714 11.7712C10.7712 12.7713 9.41465 13.3333 8.00016 13.3333Z" fill="#D6495A"/>
</g>
</svg>
