<svg width="64" height="46" viewBox="0 0 64 46" fill="none" xmlns="http://www.w3.org/2000/svg">
<g id="Container" clip-path="url(#clip0_47_370)">
<g id="Group">
<path id="Vector" d="M0 45.7628V36.3934H3.75992C4.43061 36.3934 5.04033 36.5967 5.58908 37.0235C6.23944 37.5316 6.58495 38.2632 6.58495 39.1981C6.58495 39.7266 6.48333 40.194 6.25977 40.5802C7.11337 41.0883 7.51985 41.8809 7.51985 42.9581C7.51985 43.893 7.19466 44.6043 6.52398 45.1327C5.99555 45.5595 5.40616 45.7628 4.69482 45.7628H0ZM1.8698 40.133H3.75992C4.38997 40.1127 4.69482 39.8079 4.69482 39.1981C4.69482 38.5884 4.38997 38.2632 3.75992 38.2632H1.8698V40.133ZM1.8698 43.893H4.6745C5.32487 43.8726 5.62972 43.5678 5.62972 42.9581C5.62972 42.3077 5.32487 42.0028 4.69482 42.0028H1.8698V43.893Z" fill="#45A196"/>
<path id="Vector_2" d="M15.5478 36.3934V38.2632H10.853V40.133H14.7958V42.0028H10.853V43.893H15.5478V45.7628H8.98315V36.3934H15.5478Z" fill="#45A196"/>
<path id="Vector_3" d="M23.779 36.3934V43.893H28.108V45.7628H21.9092V36.3934H23.779Z" fill="#45A196"/>
<path id="Vector_4" d="M31.4411 36.3934V45.7628H29.5713V36.3934H31.4411Z" fill="#45A196"/>
<path id="Vector_5" d="M36.9692 45.7628L32.9247 36.3934H35.0791L36.9489 41.2102L38.8187 36.3934H40.973L36.9692 45.7628Z" fill="#45A196"/>
<path id="Vector_6" d="M44.3468 36.3934V45.7628H42.477V36.3934H44.3468Z" fill="#45A196"/>
<path id="Vector_7" d="M45.8304 45.7628V36.3934L51.2569 41.4338V36.3934H53.1471V45.7628L47.6799 40.6818V45.7628H45.8304Z" fill="#45A196"/>
<path id="Vector_8" d="M64 41.0679C64 43.019 63.2277 44.4011 61.6831 45.1937C60.8904 45.5798 60.0978 45.7628 59.3255 45.7628C57.3744 45.7628 55.9924 44.9904 55.1997 43.4255C54.8136 42.6532 54.6307 41.8606 54.6307 41.0679C54.6307 40.2956 54.8136 39.503 55.1997 38.7307C55.9924 37.1861 57.3744 36.3934 59.3255 36.3934C61.4392 36.3934 62.8415 37.2877 63.5732 39.0762L61.9676 40.0721C61.5408 38.873 60.6669 38.2836 59.3255 38.2836C58.1467 38.2836 57.3134 38.751 56.846 39.6859C56.6224 40.133 56.5005 40.6005 56.5005 41.0679C56.5005 41.5354 56.6224 42.0028 56.846 42.4906C57.3134 43.4255 58.1467 43.9133 59.3255 43.9133C60.2198 43.9133 60.9514 43.6084 61.5002 42.9784H59.3255V41.0883H64V41.0679Z" fill="#45A196"/>
</g>
<g id="Group_2">
<g id="Group_3">
<path id="Vector_9" d="M25.6691 30.8043H39.5097V28.5484H28.1486V26.6786H25.6691V30.8043Z" fill="#45A196"/>
<path id="Vector_10" d="M28.1486 0.237183H25.6691V3.38739H28.1486V0.237183Z" fill="#45A196"/>
<g id="Group_4">
<path id="Vector_11" d="M44.4078 17.5328C44.1639 16.9434 43.8387 16.415 43.4322 15.9882C43.0257 15.5614 42.538 15.1955 41.9892 14.9313C41.4405 14.6468 40.8714 14.4639 40.2617 14.3419C41.5624 13.9151 42.5177 13.2648 43.0867 12.3908C43.6558 11.5169 43.9607 10.4804 43.9607 9.26096C43.9607 5.62298 41.4608 3.79382 36.4408 3.79382H28.7584H28.3519H25.2627H24.8562H19.45V26.2721H24.8562H25.2627H28.3519H28.7584H35.8921C37.2334 26.2721 38.4529 26.1298 39.5504 25.8249C40.6479 25.5201 41.5828 25.0933 42.3551 24.5242C43.1274 23.9551 43.7168 23.2438 44.1436 22.4105C44.5704 21.5772 44.7736 20.622 44.7736 19.5449C44.7736 18.7929 44.6517 18.1222 44.4078 17.5328ZM40.8511 22.7154C39.9975 23.3657 38.6764 23.6909 36.9286 23.6909H28.7787H28.3722H25.283H24.8765H21.9092V15.9475H24.47H24.8765H25.283V13.407H24.8765H24.47H21.9092V6.37496H24.8765H25.283H28.3722H28.7787H36.8676C37.7619 6.37496 38.4935 6.45626 39.0829 6.63917C39.6723 6.80176 40.1398 7.04565 40.4853 7.33018C40.8308 7.61472 41.0747 7.98055 41.2169 8.38703C41.3592 8.79351 41.4202 9.22031 41.4202 9.68776C41.4202 10.3381 41.2982 10.8869 41.0747 11.3543C40.8511 11.8218 40.5259 12.2079 40.1194 12.5128C39.713 12.8176 39.2252 13.0615 38.6561 13.2038C38.087 13.3461 37.457 13.4274 36.766 13.4274H29.1852H28.7787H28.5754V15.9678H28.7787H29.1852H36.827C37.6602 15.9678 38.3919 16.0491 39.0626 16.2321C39.713 16.3946 40.282 16.6385 40.7291 16.9637C41.1966 17.2889 41.5421 17.6751 41.786 18.1222C42.0299 18.5896 42.1518 19.0977 42.1518 19.6668C42.1315 21.0285 41.7047 22.0447 40.8511 22.7154Z" fill="#45A196"/>
<path id="Vector_12" d="M25.6691 6.78149V13.0006V13.4071V15.9476V16.3541V17.2686V23.2845H28.1486V17.2686V16.3541V15.9476V13.4071V13.0006V6.78149H25.6691Z" fill="#45A196"/>
</g>
</g>
</g>
</g>
<defs>
<clipPath id="clip0_47_370">
<rect width="64" height="45.5256" fill="white" transform="translate(0 0.237183)"/>
</clipPath>
</defs>
</svg>
