<svg width="10" height="16" viewBox="0 0 10 16" fill="none" xmlns="http://www.w3.org/2000/svg">
<path id="Vector" d="M9.25277 15.6478C9.47827 15.4222 9.60495 15.1163 9.60495 14.7974C9.60495 14.4784 9.47827 14.1725 9.25277 13.947L3.29856 7.99274L9.25277 2.03853C9.47188 1.81166 9.59313 1.50781 9.59038 1.19242C9.58764 0.877035 9.46114 0.57534 9.23812 0.352318C9.01509 0.129295 8.7134 0.00279236 8.39801 5.14984e-05C8.08262 -0.00268936 7.77877 0.118554 7.55191 0.337667L0.747265 7.14231C0.521761 7.36788 0.395081 7.67378 0.395081 7.99274C0.395081 8.3117 0.521761 8.6176 0.747265 8.84317L7.55191 15.6478C7.77748 15.8733 8.08338 16 8.40234 16C8.7213 16 9.0272 15.8733 9.25277 15.6478Z" fill="#45A196"/>
</svg>
