<svg width="181" height="129" viewBox="0 0 181 129" fill="none" xmlns="http://www.w3.org/2000/svg">
<g id="Container" clip-path="url(#clip0_771_93)">
<g id="Group">
<path id="Vector" d="M0.528564 128.5V102.157H11.1C12.9857 102.157 14.7 102.729 16.2429 103.929C18.0714 105.357 19.0429 107.414 19.0429 110.043C19.0429 111.529 18.7571 112.843 18.1286 113.929C20.5286 115.357 21.6714 117.586 21.6714 120.614C21.6714 123.243 20.7571 125.243 18.8714 126.729C17.3857 127.929 15.7286 128.5 13.7286 128.5H0.528564ZM5.78571 112.671H11.1C12.8714 112.614 13.7286 111.757 13.7286 110.043C13.7286 108.329 12.8714 107.414 11.1 107.414H5.78571V112.671ZM5.78571 123.243H13.6714C15.5 123.186 16.3571 122.329 16.3571 120.614C16.3571 118.786 15.5 117.929 13.7286 117.929H5.78571V123.243Z" fill="#45A196"/>
<path id="Vector_2" d="M44.2428 102.157V107.414H31.0428V112.671H42.1285V117.929H31.0428V123.243H44.2428V128.5H25.7856V102.157H44.2428Z" fill="#45A196"/>
<path id="Vector_3" d="M67.3856 102.157V123.243H79.557V128.5H62.1284V102.157H67.3856Z" fill="#45A196"/>
<path id="Vector_4" d="M88.9285 102.157V128.5H83.6714V102.157H88.9285Z" fill="#45A196"/>
<path id="Vector_5" d="M104.471 128.5L93.0996 102.157H99.1568L104.414 115.7L109.671 102.157H115.728L104.471 128.5Z" fill="#45A196"/>
<path id="Vector_6" d="M125.214 102.157V128.5H119.957V102.157H125.214Z" fill="#45A196"/>
<path id="Vector_7" d="M129.386 128.5V102.157L144.643 116.329V102.157H149.957V128.5L134.586 114.214V128.5H129.386Z" fill="#45A196"/>
<path id="Vector_8" d="M180.471 115.3C180.471 120.786 178.3 124.671 173.957 126.9C171.728 127.986 169.5 128.5 167.328 128.5C161.843 128.5 157.957 126.329 155.728 121.929C154.643 119.757 154.128 117.529 154.128 115.3C154.128 113.129 154.643 110.9 155.728 108.729C157.957 104.386 161.843 102.157 167.328 102.157C173.271 102.157 177.214 104.671 179.271 109.7L174.757 112.5C173.557 109.129 171.1 107.471 167.328 107.471C164.014 107.471 161.671 108.786 160.357 111.414C159.728 112.671 159.386 113.986 159.386 115.3C159.386 116.614 159.728 117.929 160.357 119.3C161.671 121.929 164.014 123.3 167.328 123.3C169.843 123.3 171.9 122.443 173.443 120.671H167.328V115.357H180.471V115.3Z" fill="#45A196"/>
</g>
<g id="Group_2">
<g id="Group_3">
<path id="Vector_9" d="M72.6997 86.4429H111.614V80.1H79.6711V74.8429H72.6997V86.4429Z" fill="#45A196"/>
<path id="Vector_10" d="M79.6711 0.5H72.6997V9.35714H79.6711V0.5Z" fill="#45A196"/>
<g id="Group_4">
<path id="Vector_11" d="M125.386 49.1286C124.7 47.4714 123.786 45.9857 122.643 44.7857C121.5 43.5857 120.128 42.5571 118.586 41.8143C117.043 41.0143 115.443 40.5 113.728 40.1571C117.386 38.9571 120.071 37.1286 121.671 34.6714C123.271 32.2143 124.128 29.3 124.128 25.8714C124.128 15.6429 117.1 10.5 102.986 10.5H81.3855H80.2427H71.557H70.4141H55.2141V73.7H70.4141H71.557H80.2427H81.3855H101.443C105.214 73.7 108.643 73.3 111.728 72.4429C114.814 71.5857 117.443 70.3857 119.614 68.7857C121.786 67.1857 123.443 65.1857 124.643 62.8429C125.843 60.5 126.414 57.8143 126.414 54.7857C126.414 52.6714 126.071 50.7857 125.386 49.1286ZM115.386 63.7C112.986 65.5286 109.271 66.4429 104.357 66.4429H81.4427H80.2998H71.6141H70.4713H62.1284V44.6714H69.3284H70.4713H71.6141V37.5286H70.4713H69.3284H62.1284V17.7571H70.4713H71.6141H80.2998H81.4427H104.186C106.7 17.7571 108.757 17.9857 110.414 18.5C112.071 18.9571 113.386 19.6429 114.357 20.4429C115.328 21.2429 116.014 22.2714 116.414 23.4143C116.814 24.5571 116.986 25.7571 116.986 27.0714C116.986 28.9 116.643 30.4429 116.014 31.7571C115.386 33.0714 114.471 34.1571 113.328 35.0143C112.186 35.8714 110.814 36.5571 109.214 36.9571C107.614 37.3571 105.843 37.5857 103.9 37.5857H82.5856H81.4427H80.8713V44.7286H81.4427H82.5856H104.071C106.414 44.7286 108.471 44.9571 110.357 45.4714C112.186 45.9286 113.786 46.6143 115.043 47.5286C116.357 48.4429 117.328 49.5286 118.014 50.7857C118.7 52.1 119.043 53.5286 119.043 55.1286C118.986 58.9571 117.786 61.8143 115.386 63.7Z" fill="#45A196"/>
<path id="Vector_12" d="M72.6997 18.9V36.3857V37.5285V44.6714V45.8142V48.3857V65.3H79.6711V48.3857V45.8142V44.6714V37.5285V36.3857V18.9H72.6997Z" fill="#45A196"/>
</g>
</g>
</g>
</g>
<defs>
<clipPath id="clip0_771_93">
<rect width="179.943" height="128" fill="white" transform="translate(0.528564 0.5)"/>
</clipPath>
</defs>
</svg>
