<svg width="87" height="13" viewBox="0 0 87 13" fill="none" xmlns="http://www.w3.org/2000/svg">
<g id="Frame 27">
<g id="Group">
<path id="Vector" d="M0.386963 12.5625V0H5.4283C6.32757 0 7.14508 0.272507 7.88085 0.844767C8.75286 1.52603 9.21612 2.50705 9.21612 3.76057C9.21612 4.46908 9.07987 5.09584 8.78011 5.6136C9.92463 6.29486 10.4696 7.35763 10.4696 8.80191C10.4696 10.0554 10.0336 11.0092 9.13437 11.7177C8.42586 12.29 7.63559 12.5625 6.68183 12.5625H0.386963ZM2.89401 5.01409H5.4283C6.27307 4.98684 6.68183 4.57808 6.68183 3.76057C6.68183 2.94305 6.27307 2.50705 5.4283 2.50705H2.89401V5.01409ZM2.89401 10.0554H6.65457C7.52659 10.0282 7.93535 9.61942 7.93535 8.80191C7.93535 7.92989 7.52659 7.52114 6.68183 7.52114H2.89401V10.0554Z" fill="#45A196"/>
<path id="Vector_2" d="M21.2333 0.00012207V2.50717H14.9384V5.01421H20.225V7.52126H14.9384V10.0556H21.2333V12.5626H12.4314V0.00012207H21.2333Z" fill="#45A196"/>
<path id="Vector_3" d="M32.27 0.00012207V10.0556H38.0743V12.5626H29.7629V0.00012207H32.27Z" fill="#45A196"/>
<path id="Vector_4" d="M42.5437 0.00012207V12.5626H40.0366V0.00012207H42.5437Z" fill="#45A196"/>
<path id="Vector_5" d="M49.9556 12.5626L44.5327 0.00012207H47.4213L49.9283 6.45849L52.4354 0.00012207H55.3239L49.9556 12.5626Z" fill="#45A196"/>
<path id="Vector_6" d="M59.8476 0.00012207V12.5626H57.3406V0.00012207H59.8476Z" fill="#45A196"/>
<path id="Vector_7" d="M61.8364 12.5626V0.00012207L69.1123 6.75824V0.00012207H71.6466V12.5626L64.3162 5.74998V12.5626H61.8364Z" fill="#45A196"/>
<path id="Vector_8" d="M86.1987 6.26773C86.1987 8.88378 85.1632 10.7368 83.0922 11.7996C82.0294 12.3173 80.9666 12.5626 79.9311 12.5626C77.315 12.5626 75.462 11.5271 74.3992 9.42879C73.8815 8.39327 73.6362 7.3305 73.6362 6.26773C73.6362 5.23221 73.8815 4.16945 74.3992 3.13393C75.462 1.06289 77.315 0.00012207 79.9311 0.00012207C82.7651 0.00012207 84.6454 1.19915 85.6264 3.59719L83.4737 4.93246C82.9014 3.32468 81.7296 2.53442 79.9311 2.53442C78.3506 2.53442 77.2333 3.16118 76.6065 4.4147C76.3068 5.01421 76.1433 5.64097 76.1433 6.26773C76.1433 6.89449 76.3068 7.52126 76.6065 8.17527C77.2333 9.42879 78.3506 10.0828 79.9311 10.0828C81.1301 10.0828 82.1111 9.67405 82.8469 8.82928H79.9311V6.29499H86.1987V6.26773Z" fill="#45A196"/>
</g>
</g>
</svg>
