<svg width="30" height="37" viewBox="0 0 30 37" fill="none" xmlns="http://www.w3.org/2000/svg">
<g id="Group">
<g id="Group_2">
<path id="Vector" d="M7.32446 36.2812H23.625V33.6242H10.2447V31.4221H7.32446V36.2812Z" fill="#45A196"/>
<path id="Vector_2" d="M10.2447 0.28125H7.32446V3.99135H10.2447V0.28125Z" fill="#45A196"/>
<g id="Group_3">
<path id="Vector_3" d="M29.3936 20.6513C29.1064 19.9571 28.7234 19.3348 28.2447 18.8321C27.7659 18.3295 27.1915 17.8986 26.5452 17.5875C25.8989 17.2524 25.2287 17.0369 24.5106 16.8933C26.0425 16.3907 27.1675 15.6247 27.8377 14.5955C28.508 13.5662 28.867 12.3455 28.867 10.9093C28.867 6.62471 25.9229 4.47046 20.0106 4.47046H10.9628H10.484H6.84574H6.36702H0V30.9438H6.36702H6.84574H10.484H10.9628H19.3643C20.9441 30.9438 22.3803 30.7763 23.6729 30.4172C24.9654 30.0582 26.0665 29.5555 26.976 28.8853C27.8856 28.2151 28.5798 27.3774 29.0824 26.396C29.5851 25.4146 29.8244 24.2896 29.8244 23.021C29.8244 22.1353 29.6808 21.3454 29.3936 20.6513ZM25.2048 26.755C24.1994 27.521 22.6436 27.904 20.5851 27.904H10.9867H10.508H6.86968H6.39095H2.89628V18.7843H5.91223H6.39095H6.86968V15.7923H6.39095H5.91223H2.89628V7.51035H6.39095H6.86968H10.508H10.9867H20.5133C21.5665 7.51035 22.4282 7.60609 23.1223 7.82152C23.8165 8.01301 24.367 8.30024 24.7739 8.63535C25.1808 8.97046 25.4681 9.40131 25.6356 9.88003C25.8032 10.3588 25.875 10.8614 25.875 11.4119C25.875 12.1779 25.7314 12.8242 25.4681 13.3747C25.2048 13.9252 24.8218 14.38 24.3431 14.7391C23.8643 15.0981 23.2899 15.3853 22.6197 15.5529C21.9494 15.7204 21.2074 15.8162 20.3936 15.8162H11.4654H10.9867H10.7473V18.8082H10.9867H11.4654H20.4654C21.4468 18.8082 22.3085 18.904 23.0984 19.1194C23.8643 19.3109 24.5346 19.5981 25.0611 19.9811C25.6117 20.3641 26.0186 20.8188 26.3058 21.3454C26.5931 21.896 26.7367 22.4944 26.7367 23.1646C26.7127 24.7683 26.2101 25.9651 25.2048 26.755Z" fill="#45A196"/>
<path id="Vector_4" d="M7.32495 7.98926V15.3137V15.7924V18.7845V19.2632V20.3403V27.4254H10.2452V20.3403V19.2632V18.7845V15.7924V15.3137V7.98926H7.32495Z" fill="#45A196"/>
</g>
</g>
</g>
</svg>
