<svg width="48" height="48" svviewBox="0 0 48 48" fill="none" xmlns="http://www.w3.org/2000/svg">
<g clip-path="url(#clip0_1_95)">
<path d="M0 41.072V34.045H2.81994C3.32296 34.045 3.78025 34.1975 4.19181 34.5176C4.67958 34.8986 4.93871 35.4474 4.93871 36.1486C4.93871 36.5449 4.8625 36.8955 4.69482 37.1851C5.33503 37.5662 5.63989 38.1606 5.63989 38.9685C5.63989 39.6697 5.396 40.2032 4.89298 40.5995C4.49667 40.9196 4.05462 41.072 3.52112 41.072H0ZM1.40235 36.8497H2.81994C3.29247 36.8345 3.52112 36.6059 3.52112 36.1486C3.52112 35.6913 3.29247 35.4474 2.81994 35.4474H1.40235V36.8497ZM1.40235 39.6697H3.50587C3.99365 39.6544 4.22229 39.4258 4.22229 38.9685C4.22229 38.4807 3.99365 38.2521 3.52112 38.2521H1.40235V39.6697Z" fill="#45A196"/>
<path d="M11.6608 34.045V35.4474H8.13972V36.8497H11.0968V38.2521H8.13972V39.6697H11.6608V41.072H6.73737V34.045H11.6608Z" fill="#45A196"/>
<path d="M17.8342 34.045V39.6697H21.081V41.072H16.4319V34.045H17.8342Z" fill="#45A196"/>
<path d="M23.5808 34.045V41.072H22.1785V34.045H23.5808Z" fill="#45A196"/>
<path d="M27.7269 41.072L24.6935 34.045H26.3093L27.7116 37.6576L29.114 34.045H30.7297L27.7269 41.072Z" fill="#45A196"/>
<path d="M33.2601 34.045V41.072H31.8577V34.045H33.2601Z" fill="#45A196"/>
<path d="M34.3728 41.072V34.045L38.4427 37.8253V34.045H39.8603V41.072L35.7599 37.2613V41.072H34.3728Z" fill="#45A196"/>
<path d="M48 37.5509C48 39.0142 47.4208 40.0508 46.2623 40.6452C45.6678 40.9349 45.0734 41.072 44.4941 41.072C43.0308 41.072 41.9943 40.4928 41.3998 39.3191C41.1102 38.7399 40.973 38.1454 40.973 37.5509C40.973 36.9717 41.1102 36.3772 41.3998 35.798C41.9943 34.6395 43.0308 34.045 44.4941 34.045C46.0794 34.045 47.1312 34.7157 47.6799 36.0571L46.4757 36.804C46.1556 35.9047 45.5002 35.4626 44.4941 35.4626C43.6101 35.4626 42.9851 35.8132 42.6345 36.5144C42.4668 36.8497 42.3754 37.2003 42.3754 37.5509C42.3754 37.9015 42.4668 38.2521 42.6345 38.6179C42.9851 39.3191 43.6101 39.6849 44.4941 39.6849C45.1648 39.6849 45.7136 39.4563 46.1251 38.9838H44.4941V37.5662H48V37.5509Z" fill="#45A196"/>
<path d="M19.2518 29.8532H29.6323V28.1613H21.1115V26.7589H19.2518V29.8532Z" fill="#45A196"/>
<path d="M21.1115 6.92786H19.2518V9.29051H21.1115V6.92786Z" fill="#45A196"/>
<path d="M33.3058 19.8996C33.1229 19.4575 32.879 19.0612 32.5741 18.7411C32.2693 18.421 31.9034 18.1466 31.4919 17.9485C31.0803 17.7351 30.6535 17.5979 30.1962 17.5064C31.1718 17.1863 31.8882 16.6985 32.315 16.0431C32.7418 15.3877 32.9704 14.6103 32.9704 13.6957C32.9704 10.9672 31.0956 9.59534 27.3306 9.59534H21.5687H21.2639H18.9469H18.6421H14.5875V26.454H18.6421H18.9469H21.2639H21.5687H26.919C27.925 26.454 28.8396 26.3473 29.6627 26.1187C30.4858 25.89 31.187 25.5699 31.7663 25.1431C32.3455 24.7163 32.7875 24.1828 33.1076 23.5579C33.4277 22.9329 33.5802 22.2165 33.5802 21.4086C33.5802 20.8446 33.4887 20.3416 33.3058 19.8996ZM30.6383 23.7865C29.9981 24.2743 29.0073 24.5182 27.6964 24.5182H21.584H21.2791H18.9622H18.6573H16.4319V18.7106H18.3525H18.6573H18.9622V16.8052H18.6573H18.3525H16.4319V11.5312H18.6573H18.9622H21.2791H21.584H27.6507C28.3213 11.5312 28.8701 11.5922 29.3121 11.7293C29.7542 11.8513 30.1048 12.0342 30.3639 12.2476C30.623 12.461 30.8059 12.7354 30.9126 13.0402C31.0193 13.3451 31.0651 13.6652 31.0651 14.0158C31.0651 14.5036 30.9736 14.9151 30.8059 15.2657C30.6383 15.6163 30.3944 15.9059 30.0895 16.1346C29.7847 16.3632 29.4188 16.5461 28.992 16.6528C28.5652 16.7595 28.0927 16.8205 27.5744 16.8205H21.8888H21.584H21.4315V18.7259H21.584H21.8888H27.6202C28.2451 18.7259 28.7939 18.7868 29.2969 18.924C29.7847 19.046 30.2115 19.2289 30.5468 19.4728C30.8974 19.7166 31.1565 20.0063 31.3394 20.3416C31.5224 20.6922 31.6138 21.0733 31.6138 21.5001C31.5986 22.5213 31.2785 23.2835 30.6383 23.7865Z" fill="#45A196"/>
<path d="M19.2518 11.8361V16.5004V16.8053V18.7106V19.0155V19.7014V24.2133H21.1115V19.7014V19.0155V18.7106V16.8053V16.5004V11.8361H19.2518Z" fill="#45A196"/>
</g>
<defs>
<clipPath id="clip0_1_95">
<rect width="48" height="34.1442" fill="white" transform="translate(0 6.92786)"/>
</clipPath>
</defs>
</svg>
