<svg width="169" height="120" viewBox="0 0 169 120" fill="none" xmlns="http://www.w3.org/2000/svg">
<g id="Container" clip-path="url(#clip0_8_203)">
<g id="Group">
<path id="Vector" d="M3.8147e-06 120V95.3036H9.91072C11.6786 95.3036 13.2857 95.8393 14.7322 96.9643C16.4464 98.3036 17.3572 100.232 17.3572 102.696C17.3572 104.089 17.0893 105.321 16.5 106.339C18.75 107.679 19.8214 109.768 19.8214 112.607C19.8214 115.071 18.9643 116.946 17.1964 118.339C15.8036 119.464 14.25 120 12.375 120H3.8147e-06ZM4.92858 105.161H9.91072C11.5714 105.107 12.375 104.304 12.375 102.696C12.375 101.089 11.5714 100.232 9.91072 100.232H4.92858V105.161ZM4.92858 115.071H12.3214C14.0357 115.018 14.8393 114.214 14.8393 112.607C14.8393 110.893 14.0357 110.089 12.375 110.089H4.92858V115.071Z" fill="#F9FFFE"/>
<path id="Vector_2" d="M40.9822 95.3036V100.232H28.6072V105.161H39V110.089H28.6072V115.071H40.9822V120H23.6786V95.3036H40.9822Z" fill="#F9FFFE"/>
<path id="Vector_3" d="M62.6786 95.3036V115.071H74.0893V120H57.75V95.3036H62.6786Z" fill="#F9FFFE"/>
<path id="Vector_4" d="M82.875 95.3036V120H77.9464V95.3036H82.875Z" fill="#F9FFFE"/>
<path id="Vector_5" d="M97.4465 120L86.7857 95.3036H92.4643L97.3929 108L102.321 95.3036H108L97.4465 120Z" fill="#F9FFFE"/>
<path id="Vector_6" d="M116.893 95.3036V120H111.964V95.3036H116.893Z" fill="#F9FFFE"/>
<path id="Vector_7" d="M120.804 120V95.3036L135.107 108.589V95.3036H140.089V120L125.679 106.607V120H120.804Z" fill="#F9FFFE"/>
<path id="Vector_8" d="M168.696 107.625C168.696 112.768 166.661 116.411 162.589 118.5C160.5 119.518 158.411 120 156.375 120C151.232 120 147.589 117.964 145.5 113.839C144.482 111.804 144 109.714 144 107.625C144 105.589 144.482 103.5 145.5 101.464C147.589 97.3929 151.232 95.3036 156.375 95.3036C161.946 95.3036 165.643 97.6607 167.571 102.375L163.339 105C162.214 101.839 159.911 100.286 156.375 100.286C153.268 100.286 151.071 101.518 149.839 103.982C149.25 105.161 148.929 106.393 148.929 107.625C148.929 108.857 149.25 110.089 149.839 111.375C151.071 113.839 153.268 115.125 156.375 115.125C158.732 115.125 160.661 114.321 162.107 112.661H156.375V107.679H168.696V107.625Z" fill="#F9FFFE"/>
</g>
<g id="Group_2">
<g id="Group_3">
<path id="Vector_9" d="M67.6607 80.5714H104.143V74.625H74.1964V69.6964H67.6607V80.5714Z" fill="#F9FFFE"/>
<path id="Vector_10" d="M74.1964 0H67.6607V8.30357H74.1964V0Z" fill="#F9FFFE"/>
<g id="Group_4">
<path id="Vector_11" d="M117.054 45.5893C116.411 44.0357 115.554 42.6429 114.482 41.5179C113.411 40.3929 112.125 39.4286 110.679 38.7321C109.232 37.9821 107.732 37.5 106.125 37.1786C109.554 36.0536 112.071 34.3393 113.571 32.0357C115.071 29.7321 115.875 27 115.875 23.7857C115.875 14.1964 109.286 9.375 96.0536 9.375H75.8036H74.7322H66.5893H65.5179H51.2679V68.625H65.5179H66.5893H74.7322H75.8036H94.6072C98.1429 68.625 101.357 68.25 104.25 67.4464C107.143 66.6429 109.607 65.5179 111.643 64.0179C113.679 62.5179 115.232 60.6429 116.357 58.4464C117.482 56.25 118.018 53.7321 118.018 50.8929C118.018 48.9107 117.696 47.1429 117.054 45.5893ZM107.679 59.25C105.429 60.9643 101.946 61.8214 97.3393 61.8214H75.8572H74.7857H66.6429H65.5714H57.75V41.4107H64.5H65.5714H66.6429V34.7143H65.5714H64.5H57.75V16.1786H65.5714H66.6429H74.7857H75.8572H97.1786C99.5357 16.1786 101.464 16.3929 103.018 16.875C104.571 17.3036 105.804 17.9464 106.714 18.6964C107.625 19.4464 108.268 20.4107 108.643 21.4821C109.018 22.5536 109.179 23.6786 109.179 24.9107C109.179 26.625 108.857 28.0714 108.268 29.3036C107.679 30.5357 106.821 31.5536 105.75 32.3571C104.679 33.1607 103.393 33.8036 101.893 34.1786C100.393 34.5536 98.7322 34.7679 96.9107 34.7679H76.9286H75.8572H75.3214V41.4643H75.8572H76.9286H97.0714C99.2679 41.4643 101.196 41.6786 102.964 42.1607C104.679 42.5893 106.179 43.2321 107.357 44.0893C108.589 44.9464 109.5 45.9643 110.143 47.1429C110.786 48.375 111.107 49.7143 111.107 51.2143C111.054 54.8036 109.929 57.4821 107.679 59.25Z" fill="#F9FFFE"/>
<path id="Vector_12" d="M67.6607 17.25V33.6429V34.7143V41.4107V42.4821V44.8929V60.75H74.1964V44.8929V42.4821V41.4107V34.7143V33.6429V17.25H67.6607Z" fill="#F9FFFE"/>
</g>
</g>
</g>
</g>
<defs>
<clipPath id="clip0_8_203">
<rect width="168.696" height="120" fill="white"/>
</clipPath>
</defs>
</svg>
