<svg width="96" height="96" viewBox="0 0 96 96" fill="none" xmlns="http://www.w3.org/2000/svg">
<g id="Quotes=Open, Device=Desktop">
<path id="Vector" d="M36 45H18.33C18.8876 41.287 20.2134 37.7311 22.2228 34.5595C24.2322 31.3878 26.881 28.6702 30 26.58L35.37 22.98L32.07 18L26.7 21.6C22.1798 24.6122 18.4731 28.6937 15.9088 33.4822C13.3445 38.2707 12.0018 43.6181 12 49.05V69C12 70.5913 12.6321 72.1174 13.7574 73.2426C14.8826 74.3679 16.4087 75 18 75H36C37.5913 75 39.1174 74.3679 40.2426 73.2426C41.3679 72.1174 42 70.5913 42 69V51C42 49.4087 41.3679 47.8826 40.2426 46.7574C39.1174 45.6321 37.5913 45 36 45ZM78 45H60.33C60.8876 41.287 62.2134 37.7311 64.2228 34.5595C66.2322 31.3878 68.881 28.6702 72 26.58L77.37 22.98L74.1 18L68.7 21.6C64.1798 24.6122 60.4731 28.6937 57.9088 33.4822C55.3445 38.2707 54.0018 43.6181 54 49.05V69C54 70.5913 54.6321 72.1174 55.7574 73.2426C56.8826 74.3679 58.4087 75 60 75H78C79.5913 75 81.1174 74.3679 82.2426 73.2426C83.3679 72.1174 84 70.5913 84 69V51C84 49.4087 83.3679 47.8826 82.2426 46.7574C81.1174 45.6321 79.5913 45 78 45Z" fill="#C9E8E4"/>
</g>
</svg>
