<svg width="60" height="60" viewBox="0 0 60 60" fill="none" xmlns="http://www.w3.org/2000/svg">
<path d="M37.5 31.875L48.5437 31.875C48.1953 34.1956 47.3666 36.418 46.1108 38.4003C44.8549 40.3826 43.1994 42.0812 41.25 43.3875L37.8938 45.6375L39.9563 48.75L43.3125 46.5C46.1376 44.6174 48.4543 42.0665 50.057 39.0736C51.6597 36.0808 52.4989 32.7387 52.5 29.3438L52.5 16.875C52.5 15.8804 52.1049 14.9266 51.4017 14.2234C50.6984 13.5201 49.7446 13.125 48.75 13.125H37.5C36.5054 13.125 35.5516 13.5201 34.8484 14.2234C34.1451 14.9266 33.75 15.8804 33.75 16.875V28.125C33.75 29.1196 34.1451 30.0734 34.8484 30.7766C35.5516 31.4799 36.5054 31.875 37.5 31.875ZM11.25 31.875H22.2937C21.9453 34.1956 21.1166 36.418 19.8608 38.4003C18.6049 40.3826 16.9494 42.0812 15 43.3875L11.6437 45.6375L13.6875 48.75L17.0625 46.5C19.8876 44.6174 22.2043 42.0665 23.807 39.0736C25.4097 36.0808 26.2489 32.7387 26.25 29.3437V16.875C26.25 15.8804 25.8549 14.9266 25.1516 14.2234C24.4484 13.5201 23.4946 13.125 22.5 13.125H11.25C10.2554 13.125 9.30161 13.5201 8.59835 14.2234C7.89509 14.9266 7.5 15.8804 7.5 16.875L7.5 28.125C7.5 29.1196 7.89509 30.0734 8.59835 30.7766C9.30161 31.4799 10.2554 31.875 11.25 31.875Z" fill="#C9E8E4"/>
</svg>
