<svg width="60" height="60" viewBox="0 0 60 60" fill="none" xmlns="http://www.w3.org/2000/svg">
<path d="M22.5 28.125H11.4563C11.8047 25.8044 12.6334 23.582 13.8892 21.5997C15.1451 19.6174 16.8006 17.9188 18.75 16.6125L22.1062 14.3625L20.0437 11.25L16.6875 13.5C13.8624 15.3826 11.5457 17.9335 9.943 20.9264C8.34029 23.9192 7.50114 27.2613 7.5 30.6562V43.125C7.5 44.1196 7.89509 45.0734 8.59835 45.7766C9.30161 46.4799 10.2554 46.875 11.25 46.875H22.5C23.4946 46.875 24.4484 46.4799 25.1516 45.7766C25.8549 45.0734 26.25 44.1196 26.25 43.125V31.875C26.25 30.8804 25.8549 29.9266 25.1516 29.2234C24.4484 28.5201 23.4946 28.125 22.5 28.125ZM48.75 28.125H37.7063C38.0547 25.8044 38.8834 23.582 40.1392 21.5997C41.3951 19.6174 43.0506 17.9188 45 16.6125L48.3563 14.3625L46.3125 11.25L42.9375 13.5C40.1124 15.3826 37.7957 17.9335 36.193 20.9264C34.5903 23.9192 33.7511 27.2613 33.75 30.6562V43.125C33.75 44.1196 34.1451 45.0734 34.8484 45.7766C35.5516 46.4799 36.5054 46.875 37.5 46.875H48.75C49.7446 46.875 50.6984 46.4799 51.4016 45.7766C52.1049 45.0734 52.5 44.1196 52.5 43.125V31.875C52.5 30.8804 52.1049 29.9266 51.4016 29.2234C50.6984 28.5201 49.7446 28.125 48.75 28.125Z" fill="#C9E8E4"/>
</svg>
