<svg width="61" height="60" viewBox="0 0 61 60" fill="none" xmlns="http://www.w3.org/2000/svg">
<g id="Quotes illustration">
<path id="Vector" d="M23 28.125H11.9563C12.3047 25.8044 13.1334 23.582 14.3892 21.5997C15.6451 19.6174 17.3006 17.9188 19.25 16.6125L22.6062 14.3625L20.5437 11.25L17.1875 13.5C14.3624 15.3826 12.0457 17.9335 10.443 20.9264C8.84029 23.9192 8.00114 27.2613 8 30.6562V43.125C8 44.1196 8.39509 45.0734 9.09835 45.7766C9.80161 46.4799 10.7554 46.875 11.75 46.875H23C23.9946 46.875 24.9484 46.4799 25.6516 45.7766C26.3549 45.0734 26.75 44.1196 26.75 43.125V31.875C26.75 30.8804 26.3549 29.9266 25.6516 29.2234C24.9484 28.5201 23.9946 28.125 23 28.125ZM49.25 28.125H38.2063C38.5547 25.8044 39.3834 23.582 40.6392 21.5997C41.8951 19.6174 43.5506 17.9188 45.5 16.6125L48.8563 14.3625L46.8125 11.25L43.4375 13.5C40.6124 15.3826 38.2957 17.9335 36.693 20.9264C35.0903 23.9192 34.2511 27.2613 34.25 30.6562V43.125C34.25 44.1196 34.6451 45.0734 35.3484 45.7766C36.0516 46.4799 37.0054 46.875 38 46.875H49.25C50.2446 46.875 51.1984 46.4799 51.9016 45.7766C52.6049 45.0734 53 44.1196 53 43.125V31.875C53 30.8804 52.6049 29.9266 51.9016 29.2234C51.1984 28.5201 50.2446 28.125 49.25 28.125Z" fill="#C9E8E4"/>
</g>
</svg>
