<svg  viewBox="0 0 96 96" fill="none" xmlns="http://www.w3.org/2000/svg">
<path d="M60 51H77.67C77.1124 54.713 75.7866 58.2689 73.7772 61.4405C71.7678 64.6122 69.119 67.3298 66 69.42L60.63 73.02L63.93 78L69.3 74.4C73.8202 71.3878 77.5269 67.3063 80.0912 62.5178C82.6555 57.7293 83.9982 52.3819 84 46.95V27C84 25.4087 83.3679 23.8826 82.2426 22.7574C81.1174 21.6321 79.5913 21 78 21H60C58.4087 21 56.8826 21.6321 55.7574 22.7574C54.6321 23.8826 54 25.4087 54 27L54 45C54 46.5913 54.6321 48.1174 55.7574 49.2426C56.8826 50.3679 58.4087 51 60 51ZM18 51H35.67C35.1124 54.713 33.7866 58.2689 31.7772 61.4405C29.7678 64.6122 27.119 67.3298 24 69.42L18.63 73.02L21.9 78L27.3 74.4C31.8202 71.3878 35.5269 67.3063 38.0912 62.5178C40.6555 57.7293 41.9982 52.3819 42 46.95V27C42 25.4087 41.3679 23.8826 40.2426 22.7574C39.1174 21.6321 37.5913 21 36 21H18C16.4087 21 14.8826 21.6321 13.7574 22.7574C12.6321 23.8826 12 25.4087 12 27V45C12 46.5913 12.6321 48.1174 13.7574 49.2426C14.8826 50.3679 16.4087 51 18 51Z" fill="#C9E8E4"/>
</svg>
