<svg width="10" height="16" viewBox="0 0 10 16" fill="none" xmlns="http://www.w3.org/2000/svg">
<path id="Vector" d="M0.747231 0.352185C0.521727 0.577756 0.395045 0.883656 0.395045 1.20261C0.395045 1.52157 0.521727 1.82747 0.747231 2.05304L6.70144 8.00726L0.747231 13.9615C0.528117 14.1883 0.406875 14.4922 0.409616 14.8076C0.412356 15.123 0.53886 15.4247 0.761883 15.6477C0.984905 15.8707 1.2866 15.9972 1.60199 15.9999C1.91738 16.0027 2.22123 15.8814 2.44809 15.6623L9.25274 8.85769C9.47824 8.63212 9.60492 8.32622 9.60492 8.00726C9.60492 7.6883 9.47824 7.3824 9.25274 7.15683L2.44809 0.352185C2.22252 0.126681 1.91662 0 1.59766 0C1.2787 0 0.972802 0.126681 0.747231 0.352185Z" fill="#45A196"/>
</svg>
