<svg width="48" height="48" viewBox="0 0 48 48" fill="none" xmlns="http://www.w3.org/2000/svg">
<g id="ic:baseline-whatsapp">
<path id="Vector" d="M38.1001 9.82C36.2665 7.96785 34.0825 6.49933 31.6754 5.5001C29.2683 4.50087 26.6863 3.99092 24.0801 4C13.1601 4 4.2601 12.9 4.2601 23.82C4.2601 27.32 5.1801 30.72 6.9001 33.72L4.1001 44L14.6001 41.24C17.5001 42.82 20.7601 43.66 24.0801 43.66C35.0001 43.66 43.9001 34.76 43.9001 23.84C43.9001 18.54 41.8401 13.56 38.1001 9.82ZM24.0801 40.3C21.1201 40.3 18.2201 39.5 15.6801 38L15.0801 37.64L8.8401 39.28L10.5001 33.2L10.1001 32.58C8.45559 29.9539 7.58238 26.9185 7.5801 23.82C7.5801 14.74 14.9801 7.34 24.0601 7.34C28.4601 7.34 32.6001 9.06 35.7001 12.18C37.2351 13.7079 38.4515 15.5253 39.2789 17.5268C40.1063 19.5284 40.5282 21.6742 40.5201 23.84C40.5601 32.92 33.1601 40.3 24.0801 40.3ZM33.1201 27.98C32.6201 27.74 30.1801 26.54 29.7401 26.36C29.2801 26.2 28.9601 26.12 28.6201 26.6C28.2801 27.1 27.3401 28.22 27.0601 28.54C26.7801 28.88 26.4801 28.92 25.9801 28.66C25.4801 28.42 23.8801 27.88 22.0001 26.2C20.5201 24.88 19.5401 23.26 19.2401 22.76C18.9601 22.26 19.2001 22 19.4601 21.74C19.6801 21.52 19.9601 21.16 20.2001 20.88C20.4401 20.6 20.5401 20.38 20.7001 20.06C20.8601 19.72 20.7801 19.44 20.6601 19.2C20.5401 18.96 19.5401 16.52 19.1401 15.52C18.7401 14.56 18.3201 14.68 18.0201 14.66H17.0601C16.7201 14.66 16.2001 14.78 15.7401 15.28C15.3001 15.78 14.0201 16.98 14.0201 19.42C14.0201 21.86 15.8001 24.22 16.0401 24.54C16.2801 24.88 19.5401 29.88 24.5001 32.02C25.6801 32.54 26.6001 32.84 27.3201 33.06C28.5001 33.44 29.5801 33.38 30.4401 33.26C31.4001 33.12 33.3801 32.06 33.7801 30.9C34.2001 29.74 34.2001 28.76 34.0601 28.54C33.9201 28.32 33.6201 28.22 33.1201 27.98Z" fill="#F9FFFE"/>
</g>
</svg>
